<mxfile host="app.diagrams.net" agent="Mozilla/5.0 (Windows NT 10.0; Win64; x64) AppleWebKit/537.36 (KHTML, like Gecko) Chrome/133.0.0.0 Safari/537.36" version="26.0.16">
  <diagram name="第 1 页" id="PRK_khNogwvU180XUK6u">
    <mxGraphModel dx="819" dy="441" grid="1" gridSize="10" guides="1" tooltips="1" connect="1" arrows="1" fold="1" page="1" pageScale="1" pageWidth="1654" pageHeight="1169" math="0" shadow="0">
      <root>
        <mxCell id="0" />
        <mxCell id="1" parent="0" />
        <mxCell id="56wWmqGhiEMz0oBVw_xG-95" value="" style="rounded=1;whiteSpace=wrap;html=1;fillColor=#CCFFCC;strokeColor=#67AB9F;strokeWidth=2;shadow=0;arcSize=6;dashed=1;dashPattern=1 1;" vertex="1" parent="1">
          <mxGeometry x="1320" y="350" width="290" height="210" as="geometry" />
        </mxCell>
        <mxCell id="56wWmqGhiEMz0oBVw_xG-69" value="" style="rounded=1;whiteSpace=wrap;html=1;fillColor=#CCFFCC;strokeColor=#67AB9F;strokeWidth=2;shadow=0;arcSize=6;dashed=1;dashPattern=1 1;" vertex="1" parent="1">
          <mxGeometry x="1010" y="600" width="232" height="500" as="geometry" />
        </mxCell>
        <mxCell id="56wWmqGhiEMz0oBVw_xG-68" value="" style="rounded=1;whiteSpace=wrap;html=1;fillColor=#CCFFCC;strokeColor=#67AB9F;strokeWidth=2;shadow=0;arcSize=6;dashed=1;dashPattern=1 1;" vertex="1" parent="1">
          <mxGeometry x="470" y="590" width="205" height="520" as="geometry" />
        </mxCell>
        <mxCell id="56wWmqGhiEMz0oBVw_xG-57" value="" style="rounded=1;whiteSpace=wrap;html=1;fillColor=#CCFFCC;strokeColor=#67AB9F;strokeWidth=2;shadow=0;arcSize=6;dashed=1;dashPattern=1 1;" vertex="1" parent="1">
          <mxGeometry x="762" y="600" width="238" height="500" as="geometry" />
        </mxCell>
        <mxCell id="56wWmqGhiEMz0oBVw_xG-56" value="" style="rounded=1;whiteSpace=wrap;html=1;fillColor=#CCFFCC;strokeColor=#67AB9F;strokeWidth=2;shadow=0;arcSize=6;dashed=1;dashPattern=1 1;" vertex="1" parent="1">
          <mxGeometry x="247" y="590" width="213" height="520" as="geometry" />
        </mxCell>
        <mxCell id="56wWmqGhiEMz0oBVw_xG-54" value="" style="rounded=1;whiteSpace=wrap;html=1;fillColor=#CCFFCC;strokeColor=#67AB9F;strokeWidth=2;shadow=0;arcSize=6;dashed=1;dashPattern=1 1;" vertex="1" parent="1">
          <mxGeometry x="390" y="350" width="692" height="210" as="geometry" />
        </mxCell>
        <mxCell id="56wWmqGhiEMz0oBVw_xG-53" value="" style="rounded=1;whiteSpace=wrap;html=1;fillColor=#CCFFCC;strokeColor=#67AB9F;strokeWidth=2;shadow=0;arcSize=6;dashed=1;dashPattern=1 1;" vertex="1" parent="1">
          <mxGeometry x="567" y="110" width="440" height="230" as="geometry" />
        </mxCell>
        <mxCell id="56wWmqGhiEMz0oBVw_xG-6" value="&lt;span style=&quot;font-size: 20px; font-weight: 700;&quot;&gt;asia-latest.osm.pbf&lt;/span&gt;" style="strokeWidth=2;html=1;shape=mxgraph.flowchart.database;whiteSpace=wrap;" vertex="1" parent="1">
          <mxGeometry x="687" y="30" width="200" height="70" as="geometry" />
        </mxCell>
        <mxCell id="56wWmqGhiEMz0oBVw_xG-33" style="edgeStyle=orthogonalEdgeStyle;rounded=0;orthogonalLoop=1;jettySize=auto;html=1;entryX=0.5;entryY=0;entryDx=0;entryDy=0;" edge="1" parent="1" source="56wWmqGhiEMz0oBVw_xG-8" target="56wWmqGhiEMz0oBVw_xG-13">
          <mxGeometry relative="1" as="geometry" />
        </mxCell>
        <mxCell id="56wWmqGhiEMz0oBVw_xG-96" style="edgeStyle=orthogonalEdgeStyle;rounded=0;orthogonalLoop=1;jettySize=auto;html=1;entryX=0.5;entryY=0;entryDx=0;entryDy=0;" edge="1" parent="1" source="56wWmqGhiEMz0oBVw_xG-8" target="56wWmqGhiEMz0oBVw_xG-93">
          <mxGeometry relative="1" as="geometry">
            <Array as="points">
              <mxPoint x="787" y="360" />
              <mxPoint x="1475" y="360" />
            </Array>
          </mxGeometry>
        </mxCell>
        <mxCell id="56wWmqGhiEMz0oBVw_xG-8" value="&lt;span style=&quot;font-size: 20px; font-weight: 700;&quot;&gt;asia-latest.osm_01.pbf&lt;/span&gt;" style="strokeWidth=2;html=1;shape=mxgraph.flowchart.database;whiteSpace=wrap;" vertex="1" parent="1">
          <mxGeometry x="627" y="230" width="320" height="90" as="geometry" />
        </mxCell>
        <mxCell id="56wWmqGhiEMz0oBVw_xG-11" style="edgeStyle=orthogonalEdgeStyle;rounded=0;orthogonalLoop=1;jettySize=auto;html=1;entryX=0.5;entryY=0;entryDx=0;entryDy=0;entryPerimeter=0;" edge="1" parent="1" source="56wWmqGhiEMz0oBVw_xG-6" target="56wWmqGhiEMz0oBVw_xG-8">
          <mxGeometry relative="1" as="geometry" />
        </mxCell>
        <mxCell id="56wWmqGhiEMz0oBVw_xG-5" value="osmconvert64-0.8.8p.exe" style="shape=parallelogram;perimeter=parallelogramPerimeter;whiteSpace=wrap;html=1;fixedSize=1;fillColor=#d5e8d4;strokeColor=#82b366;" vertex="1" parent="1">
          <mxGeometry x="727" y="130" width="120" height="50" as="geometry" />
        </mxCell>
        <mxCell id="56wWmqGhiEMz0oBVw_xG-12" value="Roads" style="shape=parallelogram;html=1;strokeWidth=2;perimeter=parallelogramPerimeter;whiteSpace=wrap;rounded=1;arcSize=12;size=0.23;fontSize=15;fontStyle=1;fillColor=#fff2cc;strokeColor=#d6b656;" vertex="1" parent="1">
          <mxGeometry x="440" y="400" width="100" height="60" as="geometry" />
        </mxCell>
        <mxCell id="56wWmqGhiEMz0oBVw_xG-13" value="Railway" style="shape=parallelogram;html=1;strokeWidth=2;perimeter=parallelogramPerimeter;whiteSpace=wrap;rounded=1;arcSize=12;size=0.23;fontSize=15;fontStyle=1;fillColor=#fff2cc;strokeColor=#d6b656;" vertex="1" parent="1">
          <mxGeometry x="917" y="400" width="100" height="60" as="geometry" />
        </mxCell>
        <mxCell id="56wWmqGhiEMz0oBVw_xG-17" value="&quot;railway&quot;!=&#39;construction&#39;" style="rounded=0;whiteSpace=wrap;html=1;fontStyle=0;spacing=2;fillColor=#f8cecc;strokeColor=#b85450;" vertex="1" parent="1">
          <mxGeometry x="812" y="760" width="142" height="30" as="geometry" />
        </mxCell>
        <mxCell id="56wWmqGhiEMz0oBVw_xG-25" style="edgeStyle=orthogonalEdgeStyle;rounded=0;orthogonalLoop=1;jettySize=auto;html=1;" edge="1" parent="1" source="56wWmqGhiEMz0oBVw_xG-19" target="56wWmqGhiEMz0oBVw_xG-20">
          <mxGeometry relative="1" as="geometry" />
        </mxCell>
        <mxCell id="56wWmqGhiEMz0oBVw_xG-19" value="&quot;highway&quot;!=&#39;construction&#39;" style="rounded=0;whiteSpace=wrap;html=1;fontStyle=0;spacing=2;fillColor=#f8cecc;strokeColor=#b85450;" vertex="1" parent="1">
          <mxGeometry x="273" y="760" width="164" height="30" as="geometry" />
        </mxCell>
        <mxCell id="56wWmqGhiEMz0oBVw_xG-75" style="edgeStyle=orthogonalEdgeStyle;rounded=0;orthogonalLoop=1;jettySize=auto;html=1;entryX=0.5;entryY=0;entryDx=0;entryDy=0;" edge="1" parent="1" source="56wWmqGhiEMz0oBVw_xG-20" target="56wWmqGhiEMz0oBVw_xG-74">
          <mxGeometry relative="1" as="geometry" />
        </mxCell>
        <mxCell id="56wWmqGhiEMz0oBVw_xG-20" value="Present_Roads" style="strokeWidth=2;html=1;shape=mxgraph.flowchart.database;whiteSpace=wrap;fillColor=#d5e8d4;strokeColor=#82b366;" vertex="1" parent="1">
          <mxGeometry x="285" y="860" width="140" height="50" as="geometry" />
        </mxCell>
        <mxCell id="56wWmqGhiEMz0oBVw_xG-80" style="edgeStyle=orthogonalEdgeStyle;rounded=0;orthogonalLoop=1;jettySize=auto;html=1;" edge="1" parent="1" source="56wWmqGhiEMz0oBVw_xG-21" target="56wWmqGhiEMz0oBVw_xG-77">
          <mxGeometry relative="1" as="geometry" />
        </mxCell>
        <mxCell id="56wWmqGhiEMz0oBVw_xG-21" value="Present_Rails" style="strokeWidth=2;html=1;shape=mxgraph.flowchart.database;whiteSpace=wrap;fillColor=#d5e8d4;strokeColor=#82b366;" vertex="1" parent="1">
          <mxGeometry x="813" y="870" width="140" height="50" as="geometry" />
        </mxCell>
        <mxCell id="56wWmqGhiEMz0oBVw_xG-22" value="Future_Roads" style="strokeWidth=2;html=1;shape=mxgraph.flowchart.database;whiteSpace=wrap;fillColor=#d5e8d4;strokeColor=#82b366;" vertex="1" parent="1">
          <mxGeometry x="505" y="860" width="140" height="50" as="geometry" />
        </mxCell>
        <mxCell id="56wWmqGhiEMz0oBVw_xG-23" value="Future_Rails" style="strokeWidth=2;html=1;shape=mxgraph.flowchart.database;whiteSpace=wrap;fillColor=#d5e8d4;strokeColor=#82b366;" vertex="1" parent="1">
          <mxGeometry x="1054" y="870" width="140" height="50" as="geometry" />
        </mxCell>
        <mxCell id="56wWmqGhiEMz0oBVw_xG-28" style="edgeStyle=orthogonalEdgeStyle;rounded=0;orthogonalLoop=1;jettySize=auto;html=1;entryX=0.5;entryY=0;entryDx=0;entryDy=0;entryPerimeter=0;" edge="1" parent="1" source="56wWmqGhiEMz0oBVw_xG-17" target="56wWmqGhiEMz0oBVw_xG-21">
          <mxGeometry relative="1" as="geometry" />
        </mxCell>
        <mxCell id="56wWmqGhiEMz0oBVw_xG-32" style="edgeStyle=orthogonalEdgeStyle;rounded=0;orthogonalLoop=1;jettySize=auto;html=1;entryX=0.6;entryY=0;entryDx=0;entryDy=0;entryPerimeter=0;" edge="1" parent="1" source="56wWmqGhiEMz0oBVw_xG-8" target="56wWmqGhiEMz0oBVw_xG-12">
          <mxGeometry relative="1" as="geometry">
            <Array as="points">
              <mxPoint x="787" y="360" />
              <mxPoint x="500" y="360" />
            </Array>
          </mxGeometry>
        </mxCell>
        <mxCell id="56wWmqGhiEMz0oBVw_xG-34" value="F_Buffer" style="strokeWidth=2;html=1;shape=mxgraph.flowchart.direct_data;whiteSpace=wrap;fillColor=#76608a;strokeColor=#432D57;fontColor=#ffffff;fontStyle=1" vertex="1" parent="1">
          <mxGeometry x="525" y="630" width="100" height="30" as="geometry" />
        </mxCell>
        <mxCell id="56wWmqGhiEMz0oBVw_xG-40" style="edgeStyle=orthogonalEdgeStyle;rounded=0;orthogonalLoop=1;jettySize=auto;html=1;exitX=0.5;exitY=1;exitDx=0;exitDy=0;exitPerimeter=0;" edge="1" parent="1" source="56wWmqGhiEMz0oBVw_xG-35" target="56wWmqGhiEMz0oBVw_xG-19">
          <mxGeometry relative="1" as="geometry" />
        </mxCell>
        <mxCell id="56wWmqGhiEMz0oBVw_xG-35" value="P_Buffer" style="strokeWidth=2;html=1;shape=mxgraph.flowchart.direct_data;whiteSpace=wrap;fillColor=#fa6800;strokeColor=#C73500;fontColor=#FFFFFF;fontStyle=1" vertex="1" parent="1">
          <mxGeometry x="307" y="630" width="96" height="30" as="geometry" />
        </mxCell>
        <mxCell id="56wWmqGhiEMz0oBVw_xG-39" style="edgeStyle=orthogonalEdgeStyle;rounded=0;orthogonalLoop=1;jettySize=auto;html=1;entryX=0.5;entryY=0;entryDx=0;entryDy=0;entryPerimeter=0;" edge="1" parent="1" source="56wWmqGhiEMz0oBVw_xG-12" target="56wWmqGhiEMz0oBVw_xG-35">
          <mxGeometry relative="1" as="geometry">
            <Array as="points">
              <mxPoint x="490" y="570" />
              <mxPoint x="355" y="570" />
            </Array>
          </mxGeometry>
        </mxCell>
        <mxCell id="56wWmqGhiEMz0oBVw_xG-82" style="edgeStyle=orthogonalEdgeStyle;rounded=0;orthogonalLoop=1;jettySize=auto;html=1;" edge="1" parent="1" source="56wWmqGhiEMz0oBVw_xG-14" target="56wWmqGhiEMz0oBVw_xG-34">
          <mxGeometry relative="1" as="geometry">
            <Array as="points">
              <mxPoint x="490" y="570" />
              <mxPoint x="575" y="570" />
            </Array>
          </mxGeometry>
        </mxCell>
        <mxCell id="56wWmqGhiEMz0oBVw_xG-14" value="osm_id&lt;div&gt;bridge&lt;/div&gt;&lt;div&gt;highway&lt;/div&gt;" style="rounded=0;whiteSpace=wrap;html=1;fontStyle=2;spacing=2;fillColor=#dae8fc;strokeColor=#6c8ebf;" vertex="1" parent="1">
          <mxGeometry x="440" y="480" width="100" height="50" as="geometry" />
        </mxCell>
        <mxCell id="56wWmqGhiEMz0oBVw_xG-43" style="edgeStyle=orthogonalEdgeStyle;rounded=0;orthogonalLoop=1;jettySize=auto;html=1;entryX=0.5;entryY=0;entryDx=0;entryDy=0;entryPerimeter=0;" edge="1" parent="1" source="56wWmqGhiEMz0oBVw_xG-34" target="56wWmqGhiEMz0oBVw_xG-22">
          <mxGeometry relative="1" as="geometry">
            <Array as="points">
              <mxPoint x="575" y="700" />
              <mxPoint x="575" y="700" />
            </Array>
          </mxGeometry>
        </mxCell>
        <mxCell id="56wWmqGhiEMz0oBVw_xG-44" value="F_Buffer" style="strokeWidth=2;html=1;shape=mxgraph.flowchart.direct_data;whiteSpace=wrap;fillColor=#76608a;strokeColor=#432D57;fontColor=#ffffff;fontStyle=1" vertex="1" parent="1">
          <mxGeometry x="1074" y="640" width="100" height="30" as="geometry" />
        </mxCell>
        <mxCell id="56wWmqGhiEMz0oBVw_xG-48" style="edgeStyle=orthogonalEdgeStyle;rounded=0;orthogonalLoop=1;jettySize=auto;html=1;" edge="1" parent="1" source="56wWmqGhiEMz0oBVw_xG-45" target="56wWmqGhiEMz0oBVw_xG-17">
          <mxGeometry relative="1" as="geometry" />
        </mxCell>
        <mxCell id="56wWmqGhiEMz0oBVw_xG-45" value="P_Buffer" style="strokeWidth=2;html=1;shape=mxgraph.flowchart.direct_data;whiteSpace=wrap;fillColor=#fa6800;strokeColor=#C73500;fontColor=#FFFFFF;fontStyle=1" vertex="1" parent="1">
          <mxGeometry x="835" y="640" width="96" height="30" as="geometry" />
        </mxCell>
        <mxCell id="56wWmqGhiEMz0oBVw_xG-46" style="edgeStyle=orthogonalEdgeStyle;rounded=0;orthogonalLoop=1;jettySize=auto;html=1;entryX=0.5;entryY=0;entryDx=0;entryDy=0;entryPerimeter=0;" edge="1" parent="1" source="56wWmqGhiEMz0oBVw_xG-13" target="56wWmqGhiEMz0oBVw_xG-45">
          <mxGeometry relative="1" as="geometry">
            <Array as="points">
              <mxPoint x="967" y="570" />
              <mxPoint x="883" y="570" />
            </Array>
          </mxGeometry>
        </mxCell>
        <mxCell id="56wWmqGhiEMz0oBVw_xG-15" value="osm_id&lt;div&gt;bridge&lt;/div&gt;&lt;div&gt;railway&lt;/div&gt;" style="rounded=0;whiteSpace=wrap;html=1;fontStyle=2;spacing=2;fillColor=#dae8fc;strokeColor=#6c8ebf;" vertex="1" parent="1">
          <mxGeometry x="917" y="490" width="100" height="50" as="geometry" />
        </mxCell>
        <mxCell id="56wWmqGhiEMz0oBVw_xG-49" style="edgeStyle=orthogonalEdgeStyle;rounded=0;orthogonalLoop=1;jettySize=auto;html=1;entryX=0.5;entryY=0;entryDx=0;entryDy=0;entryPerimeter=0;" edge="1" parent="1" source="56wWmqGhiEMz0oBVw_xG-44" target="56wWmqGhiEMz0oBVw_xG-23">
          <mxGeometry relative="1" as="geometry" />
        </mxCell>
        <mxCell id="56wWmqGhiEMz0oBVw_xG-50" value="" style="verticalLabelPosition=bottom;verticalAlign=top;html=1;shape=mxgraph.basic.smiley;fillColor=#FFFF33;" vertex="1" parent="1">
          <mxGeometry x="872" y="70" width="30" height="30" as="geometry" />
        </mxCell>
        <mxCell id="56wWmqGhiEMz0oBVw_xG-51" value="" style="verticalLabelPosition=bottom;verticalAlign=top;html=1;shape=mxgraph.basic.smiley;fillColor=#FFFF33;" vertex="1" parent="1">
          <mxGeometry x="931" y="290" width="30" height="30" as="geometry" />
        </mxCell>
        <mxCell id="56wWmqGhiEMz0oBVw_xG-52" value="2025.2.26 5:21" style="text;html=1;align=center;verticalAlign=middle;resizable=0;points=[];autosize=1;strokeColor=none;fillColor=none;" vertex="1" parent="1">
          <mxGeometry x="942" y="38" width="100" height="30" as="geometry" />
        </mxCell>
        <mxCell id="56wWmqGhiEMz0oBVw_xG-55" value="" style="verticalLabelPosition=bottom;verticalAlign=top;html=1;shape=mxgraph.basic.smiley;fillColor=#FFFF33;" vertex="1" parent="1">
          <mxGeometry x="1062" y="500" width="30" height="30" as="geometry" />
        </mxCell>
        <mxCell id="56wWmqGhiEMz0oBVw_xG-58" value="" style="verticalLabelPosition=bottom;verticalAlign=top;html=1;shape=mxgraph.basic.smiley;fillColor=#66FF66;" vertex="1" parent="1">
          <mxGeometry x="1230" y="610" width="30" height="30" as="geometry" />
        </mxCell>
        <mxCell id="56wWmqGhiEMz0oBVw_xG-59" value="" style="verticalLabelPosition=bottom;verticalAlign=top;html=1;shape=mxgraph.basic.smiley;fillColor=#66FF66;" vertex="1" parent="1">
          <mxGeometry x="657" y="580" width="30" height="30" as="geometry" />
        </mxCell>
        <mxCell id="56wWmqGhiEMz0oBVw_xG-60" value="Present_Roads_Bridge" style="strokeWidth=2;html=1;shape=mxgraph.flowchart.database;whiteSpace=wrap;fillColor=#d5e8d4;strokeColor=#82b366;" vertex="1" parent="1">
          <mxGeometry x="270" y="1040" width="170" height="50" as="geometry" />
        </mxCell>
        <mxCell id="56wWmqGhiEMz0oBVw_xG-61" value="Future_Roads_Bridge" style="strokeWidth=2;html=1;shape=mxgraph.flowchart.database;whiteSpace=wrap;fillColor=#d5e8d4;strokeColor=#82b366;" vertex="1" parent="1">
          <mxGeometry x="487" y="1040" width="170" height="50" as="geometry" />
        </mxCell>
        <mxCell id="56wWmqGhiEMz0oBVw_xG-62" value="Future_Rails_Bridge" style="strokeWidth=2;html=1;shape=mxgraph.flowchart.database;whiteSpace=wrap;fillColor=#d5e8d4;strokeColor=#82b366;" vertex="1" parent="1">
          <mxGeometry x="1039" y="1040" width="170" height="50" as="geometry" />
        </mxCell>
        <mxCell id="56wWmqGhiEMz0oBVw_xG-63" value="Present_Rails_Bridge" style="strokeWidth=2;html=1;shape=mxgraph.flowchart.database;whiteSpace=wrap;fillColor=#d5e8d4;strokeColor=#82b366;" vertex="1" parent="1">
          <mxGeometry x="798" y="1040" width="170" height="50" as="geometry" />
        </mxCell>
        <mxCell id="56wWmqGhiEMz0oBVw_xG-70" style="edgeStyle=orthogonalEdgeStyle;rounded=0;orthogonalLoop=1;jettySize=auto;html=1;entryX=0.5;entryY=0;entryDx=0;entryDy=0;entryPerimeter=0;" edge="1" parent="1" source="56wWmqGhiEMz0oBVw_xG-15" target="56wWmqGhiEMz0oBVw_xG-44">
          <mxGeometry relative="1" as="geometry">
            <Array as="points">
              <mxPoint x="967" y="570" />
              <mxPoint x="1124" y="570" />
            </Array>
          </mxGeometry>
        </mxCell>
        <mxCell id="56wWmqGhiEMz0oBVw_xG-72" value="" style="verticalLabelPosition=bottom;verticalAlign=top;html=1;shape=mxgraph.basic.smiley;fillColor=#66FF66;" vertex="1" parent="1">
          <mxGeometry x="757" y="590" width="30" height="30" as="geometry" />
        </mxCell>
        <mxCell id="56wWmqGhiEMz0oBVw_xG-73" value="" style="verticalLabelPosition=bottom;verticalAlign=top;html=1;shape=mxgraph.basic.smiley;fillColor=#66FF66;" vertex="1" parent="1">
          <mxGeometry x="230" y="580" width="30" height="30" as="geometry" />
        </mxCell>
        <mxCell id="56wWmqGhiEMz0oBVw_xG-74" value="&quot;bridge&quot;!=&#39;F&#39;" style="rounded=0;whiteSpace=wrap;html=1;fontStyle=0;spacing=2;fillColor=#f8cecc;strokeColor=#b85450;" vertex="1" parent="1">
          <mxGeometry x="273" y="960" width="164" height="30" as="geometry" />
        </mxCell>
        <mxCell id="56wWmqGhiEMz0oBVw_xG-76" style="edgeStyle=orthogonalEdgeStyle;rounded=0;orthogonalLoop=1;jettySize=auto;html=1;entryX=0.5;entryY=0;entryDx=0;entryDy=0;entryPerimeter=0;" edge="1" parent="1" source="56wWmqGhiEMz0oBVw_xG-74" target="56wWmqGhiEMz0oBVw_xG-60">
          <mxGeometry relative="1" as="geometry" />
        </mxCell>
        <mxCell id="56wWmqGhiEMz0oBVw_xG-77" value="&quot;bridge&quot;!=&#39;F&#39;" style="rounded=0;whiteSpace=wrap;html=1;fontStyle=0;spacing=2;fillColor=#f8cecc;strokeColor=#b85450;" vertex="1" parent="1">
          <mxGeometry x="801" y="960" width="164" height="30" as="geometry" />
        </mxCell>
        <mxCell id="56wWmqGhiEMz0oBVw_xG-81" style="edgeStyle=orthogonalEdgeStyle;rounded=0;orthogonalLoop=1;jettySize=auto;html=1;entryX=0.5;entryY=0;entryDx=0;entryDy=0;entryPerimeter=0;" edge="1" parent="1" source="56wWmqGhiEMz0oBVw_xG-77" target="56wWmqGhiEMz0oBVw_xG-63">
          <mxGeometry relative="1" as="geometry" />
        </mxCell>
        <mxCell id="56wWmqGhiEMz0oBVw_xG-83" style="edgeStyle=orthogonalEdgeStyle;rounded=0;orthogonalLoop=1;jettySize=auto;html=1;entryX=0.5;entryY=0;entryDx=0;entryDy=0;" edge="1" target="56wWmqGhiEMz0oBVw_xG-84" parent="1">
          <mxGeometry relative="1" as="geometry">
            <mxPoint x="572" y="910" as="sourcePoint" />
          </mxGeometry>
        </mxCell>
        <mxCell id="56wWmqGhiEMz0oBVw_xG-84" value="&quot;bridge&quot;!=&#39;F&#39;" style="rounded=0;whiteSpace=wrap;html=1;fontStyle=0;spacing=2;fillColor=#f8cecc;strokeColor=#b85450;" vertex="1" parent="1">
          <mxGeometry x="490" y="960" width="164" height="30" as="geometry" />
        </mxCell>
        <mxCell id="56wWmqGhiEMz0oBVw_xG-85" style="edgeStyle=orthogonalEdgeStyle;rounded=0;orthogonalLoop=1;jettySize=auto;html=1;" edge="1" source="56wWmqGhiEMz0oBVw_xG-84" parent="1" target="56wWmqGhiEMz0oBVw_xG-61">
          <mxGeometry relative="1" as="geometry">
            <mxPoint x="572" y="1030" as="targetPoint" />
          </mxGeometry>
        </mxCell>
        <mxCell id="56wWmqGhiEMz0oBVw_xG-90" style="edgeStyle=orthogonalEdgeStyle;rounded=0;orthogonalLoop=1;jettySize=auto;html=1;" edge="1" target="56wWmqGhiEMz0oBVw_xG-91" parent="1">
          <mxGeometry relative="1" as="geometry">
            <mxPoint x="1122" y="920" as="sourcePoint" />
          </mxGeometry>
        </mxCell>
        <mxCell id="56wWmqGhiEMz0oBVw_xG-91" value="&quot;bridge&quot;!=&#39;F&#39;" style="rounded=0;whiteSpace=wrap;html=1;fontStyle=0;spacing=2;fillColor=#f8cecc;strokeColor=#b85450;" vertex="1" parent="1">
          <mxGeometry x="1040" y="960" width="164" height="30" as="geometry" />
        </mxCell>
        <mxCell id="56wWmqGhiEMz0oBVw_xG-92" style="edgeStyle=orthogonalEdgeStyle;rounded=0;orthogonalLoop=1;jettySize=auto;html=1;entryX=0.5;entryY=0;entryDx=0;entryDy=0;entryPerimeter=0;" edge="1" source="56wWmqGhiEMz0oBVw_xG-91" parent="1">
          <mxGeometry relative="1" as="geometry">
            <mxPoint x="1122" y="1040" as="targetPoint" />
          </mxGeometry>
        </mxCell>
        <mxCell id="56wWmqGhiEMz0oBVw_xG-93" value="Building" style="shape=parallelogram;html=1;strokeWidth=2;perimeter=parallelogramPerimeter;whiteSpace=wrap;rounded=1;arcSize=12;size=0.23;fontSize=15;fontStyle=1;fillColor=#fff2cc;strokeColor=#d6b656;" vertex="1" parent="1">
          <mxGeometry x="1420" y="400" width="110" height="60" as="geometry" />
        </mxCell>
        <mxCell id="56wWmqGhiEMz0oBVw_xG-97" value="osm_id" style="rounded=0;whiteSpace=wrap;html=1;fontStyle=2;spacing=2;fillColor=#dae8fc;strokeColor=#6c8ebf;" vertex="1" parent="1">
          <mxGeometry x="1430" y="490" width="100" height="50" as="geometry" />
        </mxCell>
        <mxCell id="56wWmqGhiEMz0oBVw_xG-98" value="P_Buffer" style="strokeWidth=2;html=1;shape=mxgraph.flowchart.direct_data;whiteSpace=wrap;fillColor=#fa6800;strokeColor=#C73500;fontColor=#FFFFFF;fontStyle=1" vertex="1" parent="1">
          <mxGeometry x="1330" y="630" width="96" height="30" as="geometry" />
        </mxCell>
        <mxCell id="56wWmqGhiEMz0oBVw_xG-99" value="F_Buffer" style="strokeWidth=2;html=1;shape=mxgraph.flowchart.direct_data;whiteSpace=wrap;fillColor=#76608a;strokeColor=#432D57;fontColor=#ffffff;fontStyle=1" vertex="1" parent="1">
          <mxGeometry x="1480" y="630" width="100" height="30" as="geometry" />
        </mxCell>
        <mxCell id="56wWmqGhiEMz0oBVw_xG-100" value="P_building" style="strokeWidth=2;html=1;shape=mxgraph.flowchart.database;whiteSpace=wrap;fillColor=#d5e8d4;strokeColor=#82b366;" vertex="1" parent="1">
          <mxGeometry x="1290" y="720" width="140" height="50" as="geometry" />
        </mxCell>
        <mxCell id="56wWmqGhiEMz0oBVw_xG-101" value="F_building" style="strokeWidth=2;html=1;shape=mxgraph.flowchart.database;whiteSpace=wrap;fillColor=#d5e8d4;strokeColor=#82b366;" vertex="1" parent="1">
          <mxGeometry x="1460" y="720" width="140" height="50" as="geometry" />
        </mxCell>
      </root>
    </mxGraphModel>
  </diagram>
</mxfile>
